<svg width="84" height="84" viewBox="0 0 84 84" fill="none" xmlns="http://www.w3.org/2000/svg">
<rect width="84" height="84" rx="10" fill="url(#paint0_linear_875_2982)"/>
<g filter="url(#filter0_d_875_2982)">
<path d="M43.4034 14.4375H57.8167C67.4604 14.4375 75.2797 21.9542 75.2797 31.2248C75.2797 40.499 67.4604 48.012 57.8167 48.012H49.0968V56.2682C49.0968 65.4681 41.3393 72.9254 31.7691 72.9254C22.1988 72.9254 14.4375 65.4681 14.4375 56.2682V31.8416V20.2971C14.4375 17.0607 17.1663 14.4375 20.5329 14.4375H43.4034Z" fill="url(#paint1_linear_875_2982)"/>
<path d="M43.4034 14.4375V24.8413C43.4034 33.0157 36.5078 39.6407 28.0082 39.6407C22.137 39.6407 17.0349 36.4824 14.4375 31.8416V20.2971C14.4375 17.0607 17.1663 14.4375 20.5329 14.4375H43.4034Z" fill="url(#paint2_linear_875_2982)"/>
<path d="M46.8163 48.0126H46.8241H49.0968H23.1574C18.3414 48.0126 14.4375 51.7654 14.4375 56.3951V56.2688C14.4375 65.4687 22.1988 72.926 31.7691 72.926C41.3393 72.926 49.0968 65.4687 49.0968 56.2688V48.0126" fill="url(#paint3_linear_875_2982)"/>
<path d="M51.35 30.2913C52.966 30.2913 54.276 29.0319 54.276 27.4785C54.276 25.9251 52.966 24.6658 51.35 24.6658C49.7341 24.6658 48.4241 25.9251 48.4241 27.4785C48.4241 29.0319 49.7341 30.2913 51.35 30.2913Z" fill="url(#paint4_linear_875_2982)"/>
</g>
<defs>
<filter id="filter0_d_875_2982" x="10.4375" y="14.4375" width="68.8423" height="66.4885" filterUnits="userSpaceOnUse" color-interpolation-filters="sRGB">
<feFlood flood-opacity="0" result="BackgroundImageFix"/>
<feColorMatrix in="SourceAlpha" type="matrix" values="0 0 0 0 0 0 0 0 0 0 0 0 0 0 0 0 0 0 127 0" result="hardAlpha"/>
<feOffset dy="4"/>
<feGaussianBlur stdDeviation="2"/>
<feComposite in2="hardAlpha" operator="out"/>
<feColorMatrix type="matrix" values="0 0 0 0 0 0 0 0 0 0 0 0 0 0 0 0 0 0 0.25 0"/>
<feBlend mode="normal" in2="BackgroundImageFix" result="effect1_dropShadow_875_2982"/>
<feBlend mode="normal" in="SourceGraphic" in2="effect1_dropShadow_875_2982" result="shape"/>
</filter>
<linearGradient id="paint0_linear_875_2982" x1="84" y1="42" x2="0" y2="42" gradientUnits="userSpaceOnUse">
<stop stop-color="#FF8235"/>
<stop offset="1" stop-color="#FF592B"/>
</linearGradient>
<linearGradient id="paint1_linear_875_2982" x1="44.8586" y1="14.4375" x2="44.8586" y2="72.9254" gradientUnits="userSpaceOnUse">
<stop stop-color="white"/>
<stop offset="1" stop-color="white" stop-opacity="0"/>
</linearGradient>
<linearGradient id="paint2_linear_875_2982" x1="28.9204" y1="14.4375" x2="28.9204" y2="39.6407" gradientUnits="userSpaceOnUse">
<stop stop-color="white"/>
<stop offset="1" stop-color="#FF9262"/>
</linearGradient>
<linearGradient id="paint3_linear_875_2982" x1="48.8466" y1="45.8618" x2="20.9145" y2="70.7673" gradientUnits="userSpaceOnUse">
<stop stop-color="#FFCDB8"/>
<stop offset="1" stop-color="white"/>
</linearGradient>
<linearGradient id="paint4_linear_875_2982" x1="54.276" y1="27.4785" x2="48.4241" y2="27.4785" gradientUnits="userSpaceOnUse">
<stop stop-color="#FE8F4B"/>
<stop offset="1" stop-color="#FB724C"/>
</linearGradient>
</defs>
</svg>
