<svg width="79" height="95" viewBox="0 0 79 95" fill="none" xmlns="http://www.w3.org/2000/svg">
<path d="M30.6878 64.6001L28.4112 48.3654L32.7365 52.8145L46.3186 49.3627L48.2547 39.1189L56.7342 44.6979L59.7314 53.1835L62.1397 62.6594L65.855 62.7239L67.4108 56.2758L68.0294 52.7559L71.8328 55.1519L76.5115 59.0068L78.4311 54.6519L79.157 48.2465L79.1683 41.0139L75.4241 33.5589L77.9458 31.5729L86.1304 42.6072L86.777 56.3978L88.3825 62.7151L87.9803 71.0558L91.5534 75.1916L72.2858 80.0885L72.3879 75.8592L78.0306 73.5845L73.7377 67.2777L61.577 70.3683L62.4941 82.577L48.5961 86.1092L48.5403 81.9201L52.4327 76.7275L49.8473 72.5088L48.1528 73.7801L41.6165 69.8929L30.2158 75.3124L27.9533 82.9489L22.6159 82.456L21.6343 73.9626L30.6878 64.6001Z" fill="white"/>
<path d="M31.5391 29.5803L28.4886 17.5775C27.8464 15.0506 31.4564 15.1419 33.3417 15.5035L36.5929 28.2959L48.7074 33.6236L46.3987 49.6786L32.5007 53.2107L23.4384 40.0457L31.5391 29.5803Z" fill="white"/>
<path d="M47.191 19.7178L42.6895 10.6058L59.0149 11.3326L54.2491 25.6581L47.191 19.7178Z" fill="white"/>
<path d="M17.182 16.7521L3.4202 24.7893C0.640607 25.4957 8.87833 32.5933 13.3446 36.0538C14.3289 35.0751 16.5153 32.2553 17.3871 28.8055C18.259 25.3558 17.6136 19.3326 17.182 16.7521Z" fill="white"/>
<path d="M75.6952 72.9773C74.7182 72.0369 73.8246 71.1341 73.1315 70.0611C72.9566 69.7894 72.7174 69.7746 72.4236 69.8291C69.3865 70.3824 66.3503 70.9522 63.3055 71.4554C62.4808 71.591 62.3007 71.9142 62.3797 72.7213C62.6974 75.9494 62.9452 79.1869 63.2005 82.4208C63.2778 83.3998 62.9691 83.8061 62.0219 84.0485C57.5568 85.1884 53.0925 86.3247 48.6246 87.4535C47.5412 87.7288 47.053 87.3821 46.7171 86.2989C45.9535 83.8365 46.2732 81.6217 48.2071 79.8171C48.8498 79.2166 49.6324 78.7369 50.4125 78.3201C51.1126 77.9454 51.128 77.543 50.8315 76.8988C50.4819 76.1386 50.2191 75.3361 49.9469 74.5428C49.8053 74.1315 49.6408 73.8875 49.1359 74.0377C47.8308 74.4265 46.6125 74.2637 45.411 73.5586C44.4346 72.9846 43.3329 72.6257 42.338 72.0782C41.6361 71.6917 41.0784 71.7729 40.3953 72.1281C37.3748 73.6994 34.3316 75.2278 31.2833 76.7423C30.7874 76.9877 30.5511 77.2882 30.5027 77.8385C30.4224 78.7534 30.2964 79.6664 30.1466 80.572C29.7222 83.1363 27.522 84.8522 24.9956 84.6167C22.4625 84.3811 20.6183 82.311 20.6587 79.7115C20.6865 77.929 20.7697 76.1458 20.7975 74.3633C20.807 73.7522 21.0222 73.289 21.4441 72.8522C23.8713 70.3422 26.2694 67.8042 28.7045 65.2989C29.1312 64.8609 29.2161 64.4475 29.1371 63.8523C28.5411 59.291 27.9499 54.7285 27.4388 50.1574C27.2635 48.5812 26.8504 47.2335 25.7512 45.998C24.2801 44.3442 23.2715 42.3341 22.023 40.5043C21.8247 40.2134 21.6417 39.9237 21.3468 39.7094C19.5502 38.4023 17.75 37.1012 15.9758 35.7632C15.5346 35.4297 15.3923 35.5248 15.1815 35.9852C14.5055 37.46 13.7171 37.573 12.5044 36.5126C10.161 34.4634 7.76376 32.4734 5.42552 30.4179C4.06407 29.2221 2.75059 27.9637 1.90353 26.3178C0.957323 24.4801 1.64968 22.944 3.62156 22.3672C6.77655 21.4443 9.53163 19.7218 12.2509 17.9446C13.4722 17.1466 14.645 16.2769 15.8384 15.4356C16.8478 14.7234 17.6009 14.8817 18.0969 15.9998C18.2935 16.4425 18.5762 16.2782 18.8251 16.2452C20.5687 16.0072 22.3086 15.7482 24.0485 15.4893C26.138 15.1768 28.2103 14.8032 30.2634 14.2814C33.1883 13.538 35.9378 12.3096 38.7868 11.3603C39.1712 11.2323 39.5516 11.0885 39.9341 10.9527C40.4614 10.7648 40.9364 10.6559 40.8063 9.82643C40.6843 9.042 41.5122 8.5155 42.4592 8.64302C44.7626 8.95377 47.0724 9.19058 49.3963 9.29771C51.9704 9.41691 54.525 9.38639 57.0593 8.8062C58.5831 8.4576 59.9193 9.6665 59.9963 11.3787C60.0447 12.4424 59.8543 13.4794 59.5813 14.5021C58.8899 17.1006 57.8486 19.5729 56.8668 22.067C56.3905 23.2758 55.9293 24.491 55.4902 25.7139C55.0167 27.033 54.1604 27.3549 53.0824 26.4805C52.4829 25.994 52.3065 26.1599 52.0338 26.7672C51.1788 28.6692 50.2712 30.5492 49.3747 32.4332C49.2214 32.7563 49.1219 33.0859 49.0976 33.4401C48.9872 35.0301 48.8753 36.6205 48.7685 38.2113C48.749 38.4987 48.6805 38.7716 49.0484 38.9623C51.4368 40.203 53.5731 41.8408 55.8138 43.3141C58.652 45.1804 61.839 45.9576 65.1119 46.5044C69.0908 47.1695 73.1069 47.4317 77.1363 47.561C77.777 47.5814 77.99 47.3675 78.0921 46.7968C78.6741 43.5166 78.0321 40.4483 76.5146 37.5335C76.1534 36.8401 75.724 36.1826 75.3167 35.5127C74.3704 33.9592 74.6224 32.2054 75.9537 31.1324C77.2712 30.0712 79.001 30.1628 80.3018 31.4043C82.7942 33.7821 84.5369 36.6564 85.7516 39.855C87.6444 44.8416 88.0578 50.0142 87.5203 55.2755C87.4023 56.4319 88.0627 57.2309 88.4417 58.1534C89.9376 61.7832 90.328 65.4165 88.6631 69.093C88.4789 69.4996 88.6602 69.6839 88.8959 69.9165C90.2048 71.2097 91.5101 72.5089 92.8217 73.7997C93.2613 74.2327 93.6267 74.6846 93.4495 75.3635C93.2712 76.0444 92.7364 76.2425 92.13 76.3966C85.6654 78.0312 79.2052 79.6764 72.7423 81.3172C71.283 81.6881 70.6252 81.1374 70.7296 79.6296C70.8081 78.4966 70.918 77.3674 70.9831 76.2345C71.0227 75.5435 71.3047 75.0784 71.952 74.781C73.1794 74.2186 74.386 73.6076 75.6984 72.9697L75.6952 72.9773ZM89.6207 74.356C88.3371 73.0765 87.1762 71.9156 86.0101 70.7609C85.4579 70.2153 85.3433 69.6257 85.7386 68.9317C88.0236 64.9295 87.328 59.5798 84.1027 56.25C82.7853 54.89 81.4769 53.5194 80.1539 52.1642C79.9813 51.9878 79.8609 51.7191 79.5466 51.6864C79.4491 52.0306 79.5752 52.3415 79.618 52.6552C79.7994 53.9911 79.7113 55.3048 79.2234 56.567C78.8121 57.6282 78.1825 58.5314 77.1309 59.0575C75.5113 59.8693 73.7396 59.4739 72.2942 57.9279C71.5945 57.1793 70.9936 56.3367 70.3234 55.5587C69.8871 55.0526 69.4114 54.5766 68.7249 54.2837C68.4784 55.3181 68.5738 56.2691 68.864 57.2058C69.2126 58.3328 69.1834 59.4482 68.7968 60.5536C68.0597 62.6677 66.0213 64.1139 63.9822 63.9831C62.0044 63.8552 60.5787 62.4926 60.0684 60.1473C59.8797 59.279 59.8765 58.3735 59.7178 57.4976C59.0734 53.917 57.5892 50.6374 56.0723 47.3677C55.6829 46.5302 55.1607 45.9046 54.3412 45.4387C53.166 44.7706 52.0673 43.967 50.9337 43.2245C50.0841 42.667 49.2311 42.1154 48.3106 41.5171C48.2303 41.8889 48.1685 42.1484 48.1173 42.4103C47.6544 44.717 47.1808 47.0214 46.7338 49.3308C46.5955 50.0435 46.2486 50.4781 45.515 50.6611C41.4391 51.6785 37.3692 52.7129 33.3021 53.765C32.5749 53.9532 32.056 53.7572 31.5882 53.1935C31.1903 52.7129 30.8751 52.1406 30.2748 51.7501C30.763 55.7285 31.2509 59.6195 31.7095 63.5146C31.7778 64.0941 32.028 64.4105 32.5569 64.6527C35.7085 66.0979 38.8464 67.5753 41.9882 69.0416C43.682 69.8317 45.3857 70.6009 47.0654 71.4215C47.5972 71.6815 48.1432 71.6402 48.5283 71.3692C48.8333 71.1538 48.4312 70.6894 48.3496 70.3352C48.2953 70.1018 48.1569 69.8882 48.0723 69.6608C47.3701 67.778 47.3797 67.7957 49.239 67.0407C49.7267 66.8428 49.9158 66.9847 50.0704 67.4212C50.3977 68.3385 50.7498 69.2477 51.0925 70.1593C52.0258 72.6408 52.9749 75.1183 53.8885 77.6082C54.2644 78.6307 54.0909 79.0396 53.1625 79.6472C52.2353 80.2527 51.3061 80.857 50.3726 81.4507C49.4217 82.0556 49.0168 82.9369 48.9587 84.0378C48.9296 84.5782 49.0714 84.6733 49.5918 84.5377C53.0279 83.6426 56.4665 82.7636 59.9154 81.919C60.4536 81.7873 60.5253 81.5202 60.4848 81.0698C60.3242 79.32 60.1719 77.5698 60.0228 75.8188C59.7922 73.1251 59.573 70.4301 59.3293 67.738C59.2842 67.23 59.4433 66.976 59.9666 66.9842C60.1555 66.9867 60.346 66.982 60.5353 66.9658C61.943 66.8418 62.0014 66.8404 62.0207 68.2259C62.0329 69.0214 62.3356 69.0151 62.9576 68.8957C65.5629 68.3899 68.1734 67.9114 70.7896 67.4685C71.3908 67.3661 71.6617 67.3141 71.3163 66.61C70.8764 65.7129 70.9392 65.6819 71.8879 65.4391C72.2038 65.3588 72.5312 65.3109 72.83 65.1896C73.335 64.9872 73.5841 65.1139 73.7771 65.6416C74.7733 68.3441 76.5122 70.4561 78.9154 72.0462C79.9298 72.7165 79.8387 73.8796 78.7457 74.4281C77.2965 75.1562 75.8461 75.8863 74.3578 76.5268C73.6985 76.8104 73.4871 77.2088 73.4896 77.8672C73.4916 78.2652 73.4955 78.466 74.0021 78.3355C79.1454 77.0132 84.2936 75.7099 89.6207 74.356ZM44.5948 46.4916C45.4419 42.5606 46.2941 38.6569 46.401 34.6315C46.419 33.9813 46.2631 33.8309 45.6553 33.7551C41.9538 33.2885 38.6493 31.9494 36.0116 29.2117C35.0021 28.1636 34.2644 26.9942 33.9429 25.5241C33.4238 23.1441 32.7641 20.7931 32.1636 18.4305C31.6839 16.5432 31.6888 16.5622 29.8074 17.0453C29.2926 17.1762 29.183 17.3604 29.3182 17.8725C30.0026 20.466 30.5476 23.1 31.3421 25.6571C32.0493 27.9372 31.6682 30.0365 30.7919 32.1255C29.5838 35.0066 27.5642 37.2281 25.0442 39.0152C24.5913 39.3371 24.4784 39.5676 24.8478 40.0285C25.2 40.4686 25.483 40.9667 25.7746 41.4525C27.4978 44.3166 29.7735 46.7545 31.8467 49.3482C31.9647 49.4948 32.0751 49.7508 32.3385 49.4838C33.6092 48.1924 34.8867 46.9077 36.1634 45.6198C36.3185 45.4627 36.3032 45.2901 36.255 45.0938C36.1771 44.774 35.9372 44.8753 35.7352 44.8678C34.8897 44.8356 34.0691 44.6961 33.3028 44.3141C31.3629 43.3495 30.7899 41.1547 32.0153 39.3738C33.5586 37.1304 37.2011 36.1677 39.6628 37.3528C41.7163 38.3408 42.2781 40.6376 40.9182 42.4644C40.4405 43.1054 39.823 43.5801 39.1492 43.9917C38.9832 44.0928 38.705 44.0962 38.764 44.4209C38.8133 44.6942 38.9529 44.8268 39.2267 44.9052C40.9937 45.4145 42.7553 45.9419 44.5932 46.4853L44.5948 46.4916ZM35.4762 20.926C35.8302 22.319 36.1996 23.7063 36.5299 25.1053C36.6642 25.6731 36.8969 26.1722 37.2571 26.6237C39.6735 29.6547 42.9908 30.8258 46.6923 31.2133C47.0984 31.2564 47.1833 30.949 47.3064 30.6857C48.2201 28.7503 49.1125 26.8035 50.0531 24.8814C50.2723 24.434 50.1446 24.2226 49.808 23.9568C48.6369 23.0338 47.5162 22.0509 46.4832 20.9768C45.5102 19.9664 44.4824 18.9784 44.0382 17.5882C43.8962 17.1418 43.6042 17.263 43.327 17.3301C42.103 17.621 40.9886 18.1581 39.9408 18.8515C39.463 19.168 39.1072 19.9376 38.5532 19.7825C38.014 19.6321 37.6242 18.9913 37.135 18.6079C36.7528 18.3083 36.7907 18.0935 37.1266 17.7879C38.5062 16.5344 40.0413 15.549 41.8403 15.0195C43.0025 14.6771 42.9721 14.7033 42.471 13.5915C42.2111 13.012 41.9592 12.9734 41.3842 13.1986C39.241 14.0341 37.0795 14.8306 34.8972 15.5584C34.2554 15.772 34.2022 16.0259 34.3622 16.5956C34.7638 18.0303 35.1077 19.4829 35.4746 20.9264L35.4762 20.926ZM18.4119 20.957C20.4099 20.3837 22.3636 20.3176 24.3322 20.7336C25.1518 20.9064 25.4275 21.3738 25.1593 22.1357C25.0694 22.3906 24.955 22.6416 24.8956 22.9039C24.7829 23.3999 24.5553 23.5233 24.037 23.3827C22.4628 22.9572 20.8755 23.0294 19.3037 23.4407C19.0277 23.5125 18.7042 23.5493 18.8016 24.0054C19.0283 25.0693 18.7853 26.1045 18.5387 27.1322C18.1086 28.9262 17.4755 30.6558 16.772 32.3596C16.6334 32.6941 16.5339 32.9447 16.9386 33.2336C18.7264 34.5059 20.4859 35.8191 22.2485 37.1247C22.5137 37.3213 22.7453 37.4121 23.0499 37.2018C25.8236 35.288 28.0003 32.9173 28.8935 29.5715C29.0739 28.8985 29.2672 28.197 29.0917 27.4934C28.3217 24.4173 27.5296 21.3467 26.7595 18.2706C26.6616 17.8852 26.5271 17.7529 26.0942 17.8226C24.0636 18.1487 22.0246 18.4282 19.9888 18.7337C18.2122 19.0003 18.2122 19.007 18.4123 20.9586L18.4119 20.957ZM59.2117 47.8325C59.3754 48.2381 59.4608 48.4619 59.5553 48.6816C60.7989 51.5702 61.9588 54.4867 62.4074 57.6278C62.4947 58.2428 62.5074 58.8684 62.5952 59.485C62.7395 60.4958 63.2773 61.2031 63.9521 61.3242C64.7664 61.472 65.6395 60.971 66.134 60.0786C66.5394 59.3451 66.538 58.5788 66.3266 57.7935C65.9845 56.527 65.8033 55.2448 66.0472 53.942C66.3074 52.5577 67.1664 51.6904 68.3737 51.5853C69.1947 51.5145 69.909 51.8374 70.5727 52.2857C71.7805 53.1019 72.6824 54.2161 73.5599 55.3533C73.9063 55.8032 74.2408 56.2663 74.7302 56.5774C75.3835 56.9914 75.9577 56.8825 76.4288 56.2617C76.765 55.8182 76.9187 55.305 77.0043 54.762C77.2207 53.404 76.8762 52.128 76.4492 50.8645C76.2801 50.3645 75.9827 50.1273 75.3887 50.1118C71.8199 50.0218 68.2707 49.678 64.7447 49.108C62.9334 48.8151 61.1458 48.4035 59.2078 47.8301L59.2117 47.8325ZM15.4995 19.0306C11.9112 21.2255 8.5022 23.7026 4.40435 24.8651C4.11261 24.9476 4.20454 25.1109 4.29813 25.2939C4.54823 25.7818 4.90236 26.1895 5.27185 26.5848C7.62771 29.1066 10.3688 31.1926 12.9883 33.4154C13.3119 33.6896 13.4197 33.5647 13.5473 33.2598C14.5607 30.8367 15.5816 28.4168 16.1525 25.8405C16.2884 25.2242 16.2632 24.622 16.1524 23.9944C15.9544 22.8779 15.8611 21.7432 15.6962 20.6183C15.6203 20.0945 15.758 19.5383 15.4979 19.031L15.4995 19.0306ZM53.4624 23.5038C54.6669 20.437 55.9431 17.5066 56.8627 14.4432C57.1116 13.6166 57.3511 12.7857 57.3978 11.9113C57.4215 11.4816 57.2927 11.3916 56.8979 11.5121C56.0895 11.7579 55.2491 11.8185 54.413 11.883C51.3308 12.1199 48.2593 11.9422 45.19 11.6345C44.9899 11.6147 44.7281 11.4643 44.5934 11.6886C44.4741 11.887 44.6567 12.0962 44.7428 12.2895C44.9625 12.7835 45.2035 13.2686 45.4046 13.769C45.8867 14.9713 46.1434 16.3252 46.862 17.3598C48.5921 19.8473 51.0773 21.588 53.4608 23.5042L53.4624 23.5038ZM38.3292 70.2371C35.8704 69.0899 33.5419 68.0122 31.2228 66.9118C30.8173 66.719 30.6916 67.0182 30.5015 67.2162C28.2721 69.5381 26.0513 71.8679 23.8151 74.1831C23.5301 74.4775 23.4127 74.7831 23.4068 75.1898C23.3872 76.6474 23.3253 78.104 23.2942 79.5629C23.2641 80.9526 24.0377 81.8993 25.2569 81.993C26.4915 82.0877 27.3833 81.3029 27.5849 79.9133C27.7601 78.7104 27.9194 77.5047 28.0649 76.2976C28.1387 75.6819 28.4102 75.2548 28.9849 74.9759C30.2957 74.3384 31.5902 73.6631 32.8903 73.0032C34.6625 72.1038 36.4323 71.2018 38.3296 70.2387L38.3292 70.2371ZM85.0537 53.4426C85.2901 47.9888 84.5367 42.9867 82.1471 38.3146C81.208 36.4785 80.032 34.7951 78.5349 33.3565C78.2703 33.1026 77.9718 32.8808 77.6141 33.1869C77.2895 33.4645 77.3173 33.7853 77.5589 34.1207C77.7484 34.3835 77.9135 34.6627 78.0786 34.9419C80.4663 38.9385 81.5796 43.1867 80.5314 47.8279C80.4001 48.4094 80.4562 48.8021 80.911 49.169C81.1607 49.3712 81.3661 49.6301 81.5919 49.8635C82.6934 51.0026 83.7946 52.1401 85.0533 53.441L85.0537 53.4426ZM36.8276 42.1338C37.5594 41.8906 38.2558 41.5943 38.7513 40.9774C39.2076 40.4108 39.0989 39.9963 38.4448 39.6985C37.2408 39.1487 35.0929 39.6878 34.2821 40.7446C33.8224 41.344 33.9426 41.7708 34.6682 42.0521C35.3771 42.3276 36.1036 42.2556 36.826 42.1342L36.8276 42.1338ZM35.1047 50.6235C37.3221 50.06 39.5387 49.5 41.754 48.9285C41.9751 48.8724 42.2337 48.8907 42.4477 48.6346C41.134 48.1362 39.8126 47.7927 38.4987 47.4256C38.3032 47.371 38.1325 47.3875 37.9746 47.5335C36.9539 48.4789 35.9649 49.4566 35.1063 50.6231L35.1047 50.6235Z" fill="#48544E"/>
<path d="M33.7027 61.362C33.7008 59.8594 33.7003 58.1042 33.695 56.3503C33.6935 56.0665 33.8204 55.9569 34.0948 56.0049C34.1213 56.0099 34.1494 56.0145 34.1763 56.0144C36.3092 55.8859 36.3025 55.886 36.3333 58.0185C36.3449 58.8511 36.0133 59.8685 36.4642 60.4651C36.9127 61.059 37.9078 61.2432 38.6692 61.5928C39.9979 62.2034 41.3267 62.8139 42.6687 63.3976C43.0413 63.5601 43.1386 63.6985 42.9652 64.1074C42.1357 66.0634 42.1515 66.0662 40.2095 65.1793C38.3871 64.3462 36.563 63.5135 34.7332 62.6974C34.2343 62.4745 33.8423 62.1891 33.7031 61.3636L33.7027 61.362Z" fill="#48544E"/>
<path d="M45.3579 23.8469C44.9264 23.975 44.3953 24.1874 43.8201 23.4525C43.2696 22.7484 42.0113 23.1825 41.8821 24.0964C41.7914 24.7449 41.471 24.8801 40.9666 24.9663C40.7537 25.0019 40.5481 25.0726 40.338 25.126C39.1725 25.4222 39.0726 25.3333 39.1749 24.1018C39.3212 22.3026 40.6693 20.8789 42.5307 20.5554C44.1539 20.274 45.9402 21.2492 46.6545 22.7961C46.8605 23.243 46.8843 23.5615 46.27 23.6252C46.031 23.6506 45.7977 23.7384 45.3587 23.85L45.3579 23.8469Z" fill="#48544E"/>
<path d="M25.4004 28.9191C24.7726 29.082 24.2412 29.3398 23.6573 28.5904C23.083 27.852 21.8403 28.3208 21.6883 29.2909C21.6019 29.8441 21.3488 29.9993 20.8847 30.0718C20.592 30.1176 20.3071 30.2136 20.0196 30.2866C18.9915 30.5479 18.9503 30.5113 18.9993 29.4077C19.0801 27.6151 20.266 26.1821 22.0211 25.7579C23.7174 25.347 25.4051 26.0866 26.2968 27.6304C26.8221 28.5393 26.8138 28.5599 25.792 28.8196C25.6609 28.8529 25.5299 28.8862 25.3988 28.9195L25.4004 28.9191Z" fill="#48544E"/>
</svg>
